<?xml version="1.0" ?><!DOCTYPE svg  PUBLIC '-//W3C//DTD SVG 1.1//EN'  'http://www.w3.org/Graphics/SVG/1.1/DTD/svg11.dtd'><svg enable-background="new 0 0 48 48" id="Layer_1" version="1.1" viewBox="0 0 48 48" xml:space="preserve" xmlns="http://www.w3.org/2000/svg" xmlns:xlink="http://www.w3.org/1999/xlink"><g><g><g><path d="M28,47.5h-8c-0.6,0-1-0.4-1-1V35.3L17.1,32C17,31.8,17,31.7,17,31.5v-9c0-1.9,0.7-3.6,2.1-4.9     c0.5-0.5,1.1-0.9,1.7-1.3c0.4-0.2,0.8-0.1,1.1,0.1l2.1,1.7l2.1-1.7c0.3-0.3,0.7-0.3,1.1-0.1c0.7,0.3,1.2,0.8,1.7,1.3     c1.3,1.3,2,3.1,2,5v9c0,0.2,0,0.3-0.1,0.5L29,35.3v11.2C29,47.1,28.6,47.5,28,47.5z M21,45.5h6V35c0-0.2,0-0.3,0.1-0.5l1.9-3.3     v-8.7c0-1.3-0.5-2.6-1.5-3.5c-0.2-0.2-0.4-0.4-0.7-0.6l-2.2,1.8c-0.4,0.3-0.9,0.3-1.3,0l-2.2-1.8c-0.3,0.2-0.5,0.4-0.7,0.6     c-0.9,0.9-1.5,2.2-1.5,3.5v8.7l1.9,3.3C21,34.7,21,34.8,21,35V45.5z" fill="#010101"/></g><g><path d="M24,14.7c-2.8,0-5-2.2-5-5c0-2.8,2.2-5,5-5c2.8,0,5,2.2,5,5C29,12.4,26.8,14.7,24,14.7z M24,6.7     c-1.7,0-3,1.3-3,3s1.3,3,3,3s3-1.3,3-3S25.7,6.7,24,6.7z" fill="#010101"/></g></g><g><g><path d="M44.7,39.3h-7.2c-0.6,0-1-0.4-1-1V28.2l-1.7-2.9c-0.1-0.2-0.1-0.3-0.1-0.5v-8.1c0-1.7,0.7-3.3,1.9-4.5     c0.5-0.5,1-0.9,1.6-1.2c0.4-0.2,0.8-0.1,1.1,0.1l1.8,1.5l1.8-1.5c0.3-0.3,0.7-0.3,1.1-0.1c0.6,0.3,1.1,0.7,1.6,1.2     c1.2,1.2,1.9,2.8,1.9,4.5v8.1c0,0.2,0,0.3-0.1,0.5l-1.7,2.9v10.1C45.7,38.9,45.2,39.3,44.7,39.3z M38.5,37.3h5.2V28     c0-0.2,0-0.3,0.1-0.5l1.7-2.9v-7.9c0-1.2-0.5-2.3-1.3-3.1c-0.2-0.2-0.4-0.3-0.6-0.5l-1.9,1.6c-0.4,0.3-0.9,0.3-1.3,0l-1.9-1.6     c-0.2,0.1-0.4,0.3-0.6,0.5c-0.8,0.8-1.3,1.9-1.3,3.1v7.9l1.7,2.9c0.1,0.2,0.1,0.3,0.1,0.5V37.3z" fill="#010101"/></g><g><path d="M41.1,9.7c-2.5,0-4.6-2.1-4.6-4.6c0-2.5,2.1-4.6,4.6-4.6s4.6,2.1,4.6,4.6C45.7,7.6,43.6,9.7,41.1,9.7z      M41.1,2.5c-1.4,0-2.6,1.2-2.6,2.6c0,1.4,1.2,2.6,2.6,2.6s2.6-1.2,2.6-2.6C43.7,3.7,42.5,2.5,41.1,2.5z" fill="#010101"/></g></g><g><g><path d="M10.5,39.3H3.3c-0.6,0-1-0.4-1-1V28.2l-1.7-2.9c-0.1-0.2-0.1-0.3-0.1-0.5v-8.1c0-1.7,0.7-3.3,1.9-4.5     c0.5-0.5,1-0.9,1.6-1.2c0.4-0.2,0.8-0.1,1.1,0.1l1.8,1.5l1.8-1.5c0.3-0.3,0.7-0.3,1.1-0.1c0.6,0.3,1.1,0.7,1.6,1.2     c1.2,1.2,1.9,2.8,1.9,4.5v8.1c0,0.2,0,0.3-0.1,0.5l-1.7,2.9v10.1C11.5,38.9,11.1,39.3,10.5,39.3z M4.3,37.3h5.2V28     c0-0.2,0-0.3,0.1-0.5l1.7-2.9v-7.9c0-1.2-0.5-2.3-1.3-3.1c-0.2-0.2-0.4-0.3-0.6-0.5l-1.9,1.6c-0.4,0.3-0.9,0.3-1.3,0l-1.9-1.6     c-0.2,0.1-0.4,0.3-0.6,0.5c-0.8,0.8-1.3,1.9-1.3,3.1v7.9l1.7,2.9c0.1,0.2,0.1,0.3,0.1,0.5V37.3z" fill="#010101"/></g><g><path d="M6.9,9.7c-2.5,0-4.6-2.1-4.6-4.6c0-2.5,2.1-4.6,4.6-4.6c2.5,0,4.6,2.1,4.6,4.6C11.5,7.6,9.5,9.7,6.9,9.7z      M6.9,2.5c-1.4,0-2.6,1.2-2.6,2.6c0,1.4,1.2,2.6,2.6,2.6c1.4,0,2.6-1.2,2.6-2.6C9.5,3.7,8.4,2.5,6.9,2.5z" fill="#010101"/></g></g></g></svg>